# xmcd
#
# Track frame offsets:
#	150
#	24390
#	46920
#	67745
#	89560
#	110660
#	132612
#	158545
#	179327
#	196890
#	217740
#	242175
#	258380
#
# Disc length: 3717 seconds
#
# Revision: 1
# Processed by: cddbd v1.5.1PL0 Copyright (c) Steve Scherf et al.
# Submitted via: CDex 1.50Beta5
#
DISCID=ae0e830d
DTITLE=少年隊 - Prism
DYEAR=1999
DGENRE=Pop
TTITLE0=Act-Show
TTITLE1=愛の嵐
TTITLE2=Be COOL
TTITLE3=愛と沈黙
TTITLE4=誘われてEX
TTITLE5=Gamble Guy
TTITLE6=Season of Love
TTITLE7=TOUCH MYSELF
TTITLE8=見れば見るほど…
TTITLE9=longest night,The
TTITLE10=君に降るMelody
TTITLE11=Let Me Love You
TTITLE12=湾岸スキーヤー
EXTD=
EXTT0=
EXTT1=
EXTT2=
EXTT3=
EXTT4=
EXTT5=
EXTT6=
EXTT7=
EXTT8=
EXTT9=
EXTT10=
EXTT11=
EXTT12=
PLAYORDER=
